# xmcd
#
# Track frame offsets:
#	150
#	12349
#	29387
#	46451
#	66382
#	80610
#	99591
#	116350
#	130509
#	147824
#	166751
#	180470
#
# Disc length: 2613 seconds
#
# Revision: 1
# Processed by: cddbd v1.5.2PL0 Copyright (c) Steve Scherf et al.
# Submitted via: audiograbber 1.83.01
#
DISCID=960a330c
DTITLE=Ed Wellder - Saltwater
DYEAR=1900
DGENRE=Instrumental
TTITLE0=Ed Wellder - The Wonder
TTITLE1=Ed Wellder - If tommorrow never comes
TTITLE2=Ed Wellder - When you love someone
TTITLE3=Ed Wellder - Angels
TTITLE4=Ed Wellder - Saltwater
TTITLE5=Ed Wellder - Love on the rocks
TTITLE6=Ed Wellder - I'll always be right there
TTITLE7=Ed Wellder - She
TTITLE8=Ed Wellder - Wonderfull tonight
TTITLE9=Ed Wellder - My Way
TTITLE10=Wel and Wel   - Don't forget to remember me
TTITLE11=Ed Wellder - Beautiful woman
EXTD=
EXTT0=
EXTT1=
EXTT2=
EXTT3=
EXTT4=
EXTT5=
EXTT6=
EXTT7=
EXTT8=
EXTT9=
EXTT10=
EXTT11=
PLAYORDER=
